<svg width="0" height="0" class="hidden">
  <symbol version="1.1" xml:space="preserve" xmlns="http://www.w3.org/2000/svg" xmlns:xlink="http://www.w3.org/1999/xlink" viewBox="0 0 96 96" id="chat-chatting-communication-svgrepo-com (1)">
    <g id="banana"></g>
    <g id="Layer_12"></g>
    <g id="grape"></g>
    <g id="assasin"></g>
    <g id="gold"></g>
    <g id="mage_ass"></g>
    <g id="fighter"></g>
    <g id="SUPPORT"></g>
    <g id="marksman"></g>
    <g id="JUNGLE"></g>
    <g id="TANK"></g>
    <g id="creditcard"></g>
    <g id="CAKE"></g>
    <g id="TOPI"></g>
    <g id="SPATU"></g>
    <g id="SETTING"></g>
    <g id="CART"></g>
    <g id="k3"></g>
    <g id="computer"></g>
    <g id="phone"></g>
    <g id="location"></g>
    <g id="koper">
      <g id="Layer_29"></g>
      <path d="M17,23.1c-1.7,0-3,1.3-3,3v42c0,1.7,1.3,3,3,3h62c1.7,0,3-1.3,3-3v-42c0-1.7-1.3-3-3-3H17z"></path>
      <path d="M47.6,46.9c-1.3,0-2.5-0.4-3.6-1.1L14.4,25.4c-0.3-0.2-0.4-0.6-0.2-0.9l0.4-0.6c0.2-0.3,0.6-0.4,0.9-0.2   l29.6,20.3c1.5,1.1,3.5,1,4.9,0l29.8-20.9c0.3-0.2,0.7-0.1,0.9,0.2l0.4,0.6c0.2,0.3,0.1,0.7-0.2,0.9L51.2,45.7   C50.1,46.5,48.8,46.9,47.6,46.9z"></path>
    </g>
    <g id="guide">
      <g>
        <ellipse cx="105.5" cy="-9.5" rx="12.7" ry="12.7" transform="matrix(0.9985 -5.530002e-02 5.530002e-02 0.9985 0.6868 5.8196)"></ellipse>
        <g>
          <path d="M137-10c0-17.7-14.3-32-32-32c-17.7,0-32,14.3-32,32c0,17.7,14.3,32,32,32C122.7,22,137,7.7,137-10z"></path>
          <g>
            <path d="M153.5-10c0,26.2-21.3,47.5-47.5,47.5c-26.2,0-47.5-21.3-47.5-47.5S79.8-57.5,106-57.5      C132.2-57.5,153.5-36.2,153.5-10z"></path>
          </g>
          <circle cx="106" cy="-10" r="43.5"></circle>
          <circle cx="106" cy="-10" r="39.3"></circle>
          <line x1="138.5" x2="72.5" y1="23.5" y2="-42.5"></line>
          <line x1="72" x2="139" y1="24" y2="-43"></line>
          <circle cx="106" cy="-10" r="22.5"></circle>
        </g>
      </g>
    </g>
    <g id="MAGICAL"></g>
    <g id="phisical"></g>
    <g id="mango"></g>
    <g id="orange"></g>
  </symbol>
</svg>