<svg width="0" height="0" class="hidden">
  <symbol version="1.1" id="chinese-new-year-sign-svgrepo-com" xmlns="http://www.w3.org/2000/svg" xmlns:xlink="http://www.w3.org/1999/xlink" x="0px" y="0px" xml:space="preserve" viewBox="0 0 29.499 29.499">
    <g>
      <path d="M5.166,14.033h19.166c0.414,0,0.75-0.336,0.75-0.75c0-4.422-2.816-8.351-7.009-9.776c-0.229-0.079-0.481-0.041-0.678,0.1
		c-0.197,0.141-0.313,0.368-0.313,0.61v4.9h-4.667v-4.9c0-0.242-0.117-0.469-0.313-0.61c-0.197-0.141-0.449-0.18-0.678-0.1
		C7.232,4.931,4.416,8.86,4.416,13.283C4.416,13.697,4.752,14.033,5.166,14.033z M10.916,5.331v3.785H8.957
		c-0.414,0-0.75,0.336-0.75,0.75c0,0.414,0.336,0.75,0.75,0.75H20.54c0.414,0,0.75-0.336,0.75-0.75c0-0.414-0.336-0.75-0.75-0.75
		h-1.958V5.332c2.806,1.35,4.704,4.087,4.968,7.201H5.948C6.212,9.418,8.11,6.681,10.916,5.331z"></path>
      <path d="M24.332,15.466H5.166c-0.414,0-0.75,0.336-0.75,0.75c0,4.422,2.816,8.352,7.008,9.777c0.079,0.027,0.161,0.04,0.242,0.04
		c0.155,0,0.308-0.048,0.437-0.14c0.197-0.141,0.313-0.368,0.313-0.61v-4.9h4.667v4.9c0,0.242,0.117,0.469,0.313,0.61
		c0.196,0.141,0.449,0.177,0.678,0.1c4.192-1.425,7.009-5.354,7.009-9.776C25.082,15.802,24.747,15.466,24.332,15.466z
		 M18.582,24.167v-3.785h1.958c0.414,0,0.75-0.336,0.75-0.75c0-0.414-0.336-0.75-0.75-0.75H8.957c-0.414,0-0.75,0.336-0.75,0.75
		c0,0.414,0.336,0.75,0.75,0.75h1.958v3.785c-2.806-1.35-4.704-4.087-4.968-7.202h17.603C23.286,20.08,21.389,22.818,18.582,24.167z
		"></path>
      <path d="M14.749,0C7.174,0,1.01,6.617,1.01,14.75s6.164,14.75,13.739,14.75c7.576,0,13.739-6.617,13.739-14.75S22.325,0,14.749,0z
		 M14.749,27.499c-6.473,0-11.739-5.719-11.739-12.75S8.276,2,14.749,2c6.473,0,11.739,5.719,11.739,12.75
		S21.223,27.499,14.749,27.499z"></path>
    </g>
    <g></g>
    <g></g>
    <g></g>
    <g></g>
    <g></g>
    <g></g>
    <g></g>
    <g></g>
    <g></g>
    <g></g>
    <g></g>
    <g></g>
    <g></g>
    <g></g>
    <g></g>
  </symbol>
</svg>