<svg width="0" height="0" class="hidden">
  <symbol version="1.1" xml:space="preserve" xmlns="http://www.w3.org/2000/svg" xmlns:xlink="http://www.w3.org/1999/xlink" viewBox="0 0 96 96" id="call-communication-device-svgrepo-com">
    <g id="banana"></g>
    <g id="Layer_12"></g>
    <g id="grape"></g>
    <g id="assasin"></g>
    <g id="gold"></g>
    <g id="mage_ass"></g>
    <g id="fighter"></g>
    <g id="SUPPORT"></g>
    <g id="marksman"></g>
    <g id="JUNGLE"></g>
    <g id="TANK"></g>
    <g id="creditcard"></g>
    <g id="CAKE"></g>
    <g id="TOPI"></g>
    <g id="SPATU"></g>
    <g id="SETTING"></g>
    <g id="CART"></g>
    <g id="k3"></g>
    <g id="computer"></g>
    <g id="phone"></g>
    <g id="location"></g>
    <g id="koper">
      <g id="Layer_29"></g>
      <path d="M69,70.7c-1.2,1.1-2.6,1.8-4.2,2.1c0,0,0,0,0,0c0,0,0,0,0,0c-0.3,0.1-0.7,0.1-1,0.1c-0.1,0-0.3,0-0.6,0c0,0,0,0,0,0l-0.5,0   c-9.4,0.3-18.5-3.1-25.6-9.8c-7.9-7.4-12.6-18.1-13-29.3c0-0.3,0-0.6,0-0.8c0,0,0,0,0,0c0,0,0,0,0,0c0-0.1,0-0.2,0-0.3   c0-0.3,0-0.6,0-1c0,0,0-0.1,0-0.1c0.3-4.8,3.9-8.5,8.3-8.6c0.6,0,1.2,0,1.7,0.1c0.8,0.2,1.6,0.5,2.4,0.9L39,38.6   c-1.3,1.6-3.1,2.7-5,3c0,0,0,0-0.1,0c0,0,0,0-0.1,0c0,0-0.1,0-0.1,0.1c-0.1,0-0.1,0.1-0.2,0.1c-0.1,0-0.1,0.1-0.1,0.1   c0,0-0.1,0.1-0.1,0.1c0,0.1-0.1,0.1-0.1,0.2c0,0.1,0,0.1-0.1,0.2c0,0.1,0,0.1,0,0.2c0,0,0,0.1,0,0.1c0,0,0,0,0,0.1c0,0,0,0,0,0.1   C36.4,53,44,60.7,53.6,63.5c0,0,0.1,0,0.1,0c0,0,0,0,0.1,0c0,0,0.1,0,0.1,0c0,0,0,0,0,0c0,0,0,0,0,0c0,0,0,0,0,0c0,0,0,0,0,0   c0.1,0,0.2,0,0.3-0.1c0,0,0.1,0,0.1-0.1c0.1,0,0.1-0.1,0.2-0.1c0,0,0.1-0.1,0.1-0.1c0-0.1,0.1-0.1,0.1-0.2c0,0,0-0.1,0.1-0.1   c0,0,0-0.1,0-0.1c0,0,0-0.1,0-0.1c0,0,0-0.1,0-0.1c0.2-2.1,1.1-4.1,2.5-5.7l13.5,1.9c0.4,0.7,0.7,1.5,0.9,2.3c0,0,0,0.1,0,0.1   c0.1,0.4,0.2,0.9,0.2,1.3c0,0.2,0,0.4,0,0.6C72.1,66.2,70.9,68.9,69,70.7z"></path>
    </g>
    <g id="guide"></g>
    <g id="MAGICAL"></g>
    <g id="phisical"></g>
    <g id="mango"></g>
    <g id="orange"></g>
  </symbol>
  <symbol version="1.1" xml:space="preserve" xmlns="http://www.w3.org/2000/svg" xmlns:xlink="http://www.w3.org/1999/xlink" viewBox="0 0 96 96" id="chat-chatting-communication-svgrepo-com">
    <g id="banana"></g>
    <g id="Layer_12"></g>
    <g id="grape"></g>
    <g id="assasin"></g>
    <g id="gold"></g>
    <g id="mage_ass"></g>
    <g id="fighter"></g>
    <g id="SUPPORT"></g>
    <g id="marksman"></g>
    <g id="JUNGLE"></g>
    <g id="TANK"></g>
    <g id="creditcard"></g>
    <g id="CAKE"></g>
    <g id="TOPI"></g>
    <g id="SPATU"></g>
    <g id="SETTING"></g>
    <g id="CART"></g>
    <g id="k3"></g>
    <g id="computer"></g>
    <g id="phone"></g>
    <g id="location"></g>
    <g id="koper">
      <g id="Layer_29"></g>
      <path d="M17,23.1c-1.7,0-3,1.3-3,3v42c0,1.7,1.3,3,3,3h62c1.7,0,3-1.3,3-3v-42c0-1.7-1.3-3-3-3H17z"></path>
      <path d="M47.6,46.9c-1.3,0-2.5-0.4-3.6-1.1L14.4,25.4c-0.3-0.2-0.4-0.6-0.2-0.9l0.4-0.6c0.2-0.3,0.6-0.4,0.9-0.2   l29.6,20.3c1.5,1.1,3.5,1,4.9,0l29.8-20.9c0.3-0.2,0.7-0.1,0.9,0.2l0.4,0.6c0.2,0.3,0.1,0.7-0.2,0.9L51.2,45.7   C50.1,46.5,48.8,46.9,47.6,46.9z"></path>
    </g>
    <g id="guide">
      <g>
        <ellipse cx="105.5" cy="-9.5" rx="12.7" ry="12.7" transform="matrix(0.9985 -5.530002e-02 5.530002e-02 0.9985 0.6868 5.8196)"></ellipse>
        <g>
          <path d="M137-10c0-17.7-14.3-32-32-32c-17.7,0-32,14.3-32,32c0,17.7,14.3,32,32,32C122.7,22,137,7.7,137-10z"></path>
          <g>
            <path d="M153.5-10c0,26.2-21.3,47.5-47.5,47.5c-26.2,0-47.5-21.3-47.5-47.5S79.8-57.5,106-57.5      C132.2-57.5,153.5-36.2,153.5-10z"></path>
          </g>
          <circle cx="106" cy="-10" r="43.5"></circle>
          <circle cx="106" cy="-10" r="39.3"></circle>
          <line x1="138.5" x2="72.5" y1="23.5" y2="-42.5"></line>
          <line x1="72" x2="139" y1="24" y2="-43"></line>
          <circle cx="106" cy="-10" r="22.5"></circle>
        </g>
      </g>
    </g>
    <g id="MAGICAL"></g>
    <g id="phisical"></g>
    <g id="mango"></g>
    <g id="orange"></g>
  </symbol>
  <symbol xmlns="http://www.w3.org/2000/svg" viewBox="0 0 32 32" id="github-svgrepo-com">
    <path d="M16 0.396c-8.839 0-16 7.167-16 16 0 7.073 4.584 13.068 10.937 15.183 0.803 0.151 1.093-0.344 1.093-0.772 0-0.38-0.009-1.385-0.015-2.719-4.453 0.964-5.391-2.151-5.391-2.151-0.729-1.844-1.781-2.339-1.781-2.339-1.448-0.989 0.115-0.968 0.115-0.968 1.604 0.109 2.448 1.645 2.448 1.645 1.427 2.448 3.744 1.74 4.661 1.328 0.14-1.031 0.557-1.74 1.011-2.135-3.552-0.401-7.287-1.776-7.287-7.907 0-1.751 0.62-3.177 1.645-4.297-0.177-0.401-0.719-2.031 0.141-4.235 0 0 1.339-0.427 4.4 1.641 1.281-0.355 2.641-0.532 4-0.541 1.36 0.009 2.719 0.187 4 0.541 3.043-2.068 4.381-1.641 4.381-1.641 0.859 2.204 0.317 3.833 0.161 4.235 1.015 1.12 1.635 2.547 1.635 4.297 0 6.145-3.74 7.5-7.296 7.891 0.556 0.479 1.077 1.464 1.077 2.959 0 2.14-0.020 3.864-0.020 4.385 0 0.416 0.28 0.916 1.104 0.755 6.4-2.093 10.979-8.093 10.979-15.156 0-8.833-7.161-16-16-16z"></path>
  </symbol>
  <symbol version="1.1" id="menu-svgrepo-com" xmlns="http://www.w3.org/2000/svg" xmlns:xlink="http://www.w3.org/1999/xlink" x="0px" y="0px" xml:space="preserve" viewBox="0 0 377 377">
    <g>
      <circle cx="15" cy="88.5" r="15"></circle>
      <rect x="75" y="73.5" width="302" height="30"></rect>
      <circle cx="15" cy="288.5" r="15"></circle>
      <rect x="75" y="273.5" width="302" height="30"></rect>
      <circle cx="15" cy="188.5" r="15"></circle>
      <rect x="75" y="173.5" width="302" height="30"></rect>
    </g>
    <g></g>
    <g></g>
    <g></g>
    <g></g>
    <g></g>
    <g></g>
    <g></g>
    <g></g>
    <g></g>
    <g></g>
    <g></g>
    <g></g>
    <g></g>
    <g></g>
    <g></g>
  </symbol>
</svg>